<?xml version="1.0" encoding="UTF-8"?>
<!DOCTYPE svg PUBLIC "-//W3C//DTD SVG 1.1//EN" "http://www.w3.org/Graphics/SVG/1.1/DTD/svg11.dtd">
<!-- Creator: CorelDRAW X8 -->
<svg xmlns="http://www.w3.org/2000/svg" xml:space="preserve" width="47mm" height="46mm" version="1.1" style="shape-rendering:geometricPrecision; text-rendering:geometricPrecision; image-rendering:optimizeQuality; fill-rule:evenodd; clip-rule:evenodd"
     viewBox="0 0 4700000 4600000"
     xmlns:xlink="http://www.w3.org/1999/xlink">
 <defs>
  <style type="text/css">
   <![CDATA[
    .fil1 {fill:#CD302E}
    .fil0 {fill:#FEFEFE}
   ]]>
  </style>
 </defs>
    <g id="Capa_x0020_1">
  <metadata id="CorelCorpID_0Corel-Layer"/>
        <rect class="fil0" x="12380" y="18530" width="4660170" height="4553460" rx="100743" ry="102502"/>
        <g id="_2793800447712">
   <path class="fil1" d="M1986510 209070c-142160,23930 -235350,86410 -301240,166130 -260460,315060 11250,785270 450820,722850 238460,-33880 442210,-245840 397670,-517480 -35900,-218730 -265780,-418870 -547220,-371460l-30 -40z"/>
            <path class="fil1" d="M1783740 4306410l84530 -310790c100330,-338950 174020,-563530 312490,-898390 293420,-709350 656700,-1088010 1290260,-1526940 245870,-170330 519010,-314790 822830,-410210 72190,-22660 255960,-81690 320760,-86240l-541340 79160c-1210300,182050 -2346980,231990 -3515460,-160140 -71350,-23930 -170740,-65940 -238380,-81570 16640,24640 20060,22250 43440,39170l136170 112150c30940,29930 58490,50760 88540,80050 644380,627910 850720,1163210 1031810,2020320 38830,183860 67960,371290 94990,558560 27630,191510 37160,397280 69310,584850l50 20z"/>
  </g>
 </g>
</svg>
