<?xml version="1.0" standalone="no"?>
<!DOCTYPE svg PUBLIC "-//W3C//DTD SVG 20010904//EN"
 "http://www.w3.org/TR/2001/REC-SVG-20010904/DTD/svg10.dtd">
<svg version="1.0" xmlns="http://www.w3.org/2000/svg"
 width="1563.000000pt" height="1528.000000pt" viewBox="0 0 1563.000000 1528.000000"
 preserveAspectRatio="xMidYMid meet">

<g transform="translate(0.000000,1528.000000) scale(0.100000,-0.100000)"
fill="#000000" stroke="none">
<path d="M6740 14599 c-185 -15 -431 -79 -598 -155 -424 -193 -747 -593 -844
-1047 -29 -136 -31 -397 -4 -532 132 -662 662 -1151 1339 -1235 141 -18 413
-8 551 19 572 115 1038 519 1194 1036 52 170 57 207 57 420 0 157 -4 218 -19
284 -72 330 -248 621 -509 840 -260 218 -556 341 -898 371 -125 11 -131 11
-269 -1z"/>
<path d="M1080 12241 c0 -10 66 -71 115 -106 85 -62 438 -356 600 -501 297
-264 790 -779 1105 -1154 524 -625 931 -1234 1275 -1915 255 -504 443 -963
639 -1565 281 -858 570 -2080 751 -3170 115 -695 173 -1125 240 -1790 57 -561
122 -1077 131 -1045 2 6 71 258 153 560 290 1063 581 1962 906 2800 272 699
469 1150 694 1590 799 1562 1789 2651 3551 3910 1004 717 1858 1173 2811 1500
189 65 652 208 859 265 96 27 170 49 164 49 -6 1 -134 -17 -285 -39 -151 -23
-411 -61 -579 -85 -168 -24 -444 -65 -615 -90 -1400 -207 -2413 -322 -3470
-395 -3038 -208 -5618 65 -8060 853 -126 41 -324 109 -440 152 -349 128 -545
192 -545 176z"/>
</g>
</svg>
